<svg xmlns="http://www.w3.org/2000/svg" version="1" viewBox="0 0 1280 800" xmlns:xlink="http://www.w3.org/1999/xlink"><style>.st2{fill:#a5bfdd}.st3,.st4,.st5,.st6,.st7,.st8,.st9{fill:none;stroke:#ccca6f;stroke-width:5.96;stroke-linejoin:round}.st4,.st5,.st6,.st7,.st8,.st9{stroke:#fffd8b;stroke-width:3.96}.st5,.st6,.st7,.st8,.st9{stroke:#d4ccb8;stroke-width:3}.st6,.st7,.st8,.st9{stroke:#ccb353;stroke-width:5.96}.st7,.st8,.st9{stroke:#ffe068;stroke-width:2.98}.st8,.st9{stroke:#cc9c37;stroke-width:13.8}.st9{stroke:#fd923a;stroke-width:9.85}</style><defs><path id="b" d="M1280 800H0V0h1280"/></defs><clipPath id="a"><use overflow="visible" xlink:href="#b"/></clipPath><g clip-path="url(#a)"><path fill="#f2efe9" d="M1280 800H0V0h1280"/><path d="M795 0l-1 7 3 3 10 6h4l1 2v3l-1 2-3 3v3l-4 3-5 1h-4l-5-6-4-3h-7l-3 3-2 3-1 5-2 4-2 2-2 4v8l5 3 3 2 10 10 4-1 2-6 1-4v-2l-3-5v-3l2-4h2l3 3 4 3h2l3-3 3-5 3-7 2-7V16l2-2 1-4 2-4 3-2 5-2 1-1v-3m-5 4l-3 3-3 2-2 3-4 4-3-1-6-3-3-1-2-2 2-8m1 40h2v2l-2 1-4-1-4-2h-3v-2h6l5 2zM633 799l-4-1-2-3-9-7h-3l-5-4-6-4-1 1-3-1 1-2-4-3-2 2-4-2-1 1-5-4-2 1-6-2v-2l-9-2-1 2-2-1v-1l-3-1h-2l2-3-1-1h-2l-4 5-4-1-3-2 1-2-6-2-3-2-12-6v2l-1 1-3-1-1 1-3-2-6-1v-1l-2-2-6 2-10-3-5-1-4-2-2 3-2-1v-2l-3-2h-4l-1-2-10-2h-6l-3-1h-4l-3-1h-4l-3-1-14-4v2l-6-2 2-4h-2l-2 3-3 1-15-3-11-2-16-6-13-4-1 2h1v1h-1v1l-2-1v-2h1l1-2-8-2-1 3-6-2-5-1 1-1-4-1-1 1-4-1v-2l-25-8-11-6-1 2h1v1h-1l-2-2h2l1-1-12-5 1-3 2-3-6-3v-1l-5-2-4-3-4-2-6-4-3-3-6-8-3-3-2 1h-1l1 1h-1l-1-2 1 1 1-1h-1l-2-2-3-4v-1l-2 2-2-2 2-2h-1l-2 1-3-3-1-2-1-1h-3 1l1-1-7-7-3-5 1-1-1-1h-1v-3l-2 1-2-4 1-1-1-1-1 2-2-1-2-2-1-3-3 1-3-3h-1v1l-1 1-1-1 3-2-1-1 3-2-1-1-2 1 1-1h-1l-1-1-1 1-1-2h-2v-1l-1 1-1-1 1-1-2-3-3-5-2 1-1-1v-1l1 1 1-1-4-5-1-2h1l-1-2-1-3-3 2v1h-1l-1-3h1v1l3-1-1-1h-3l-2-2 2-1 1 3 2-1-1-2h-2l-38 10 2 3 4-1 1 3-2 1-1-2-1 1 7 10v3l-2 1v1h10l1 2 4 6 1 1 4 3v2l1 1 6 7 3 5 5 8h1l1-1 1 1-1 2-1-1 3 5 1 2 4 3h1l1 1v2l4 1 1 2 3 2 5 5-1 2v8l-2 2 7 6 1-1 4 3 5 3-2 2 9 8 2-2 3 2-2 1 5 5 1-1 4 3 2-1 11 8 2 1 3 1 2 1h1l6 4 3 1 6 4 5 2 6 3 4 3 2 2h4v-1h1v2l7 1 31 9h7l1-2v-1l5 1-2 3h-1v1l11 4 2-4 2 1-1 4 12 5 4 1 1-3h1l-1 3 3 2 1-3h1l-1 3 6 1 10 2v-1l2 1v1h2l1-1h4l5 1v-1l1 1v1l5 2 1-1 24 8 3-3 6 2 1-1h1l-1 2 4 2 1-4 1 3 20 3 11 5 5 1 2-2 3 2 1-1 3 2v2l2-2 3 1h2l14 5h2l3 1h7l9 4M133 800v-4l5-8 2-6 3-7 4-10 1-5 3-5 5-11h1l1-2-1-2 4-6 2 1 2-4 5-9 8-10 20-20 10-13 6 7-19 19h-3l-10 10 2 2-9 11-11 15-6 10-5 11-6 18-8 18m182-390l8 34 3 32 3 25-1 31-1 29v33l2 16 1 7 1 6-2 2-2 3-15 14-12 13-7 9-12 18-4-1 13-20 37-37v-7l-1-8-2-15v-34l1-29 1-31-3-25-3-32-8-32-6-23-5-23-3-14-1-4-2-3 2-2 2 2 1 2 1 4 1 3 2 12 5 22 6 23zm128-150l-13-8-19-11-50-31-32-20-13-11-9-7 2-1 12 8 10 8 14 10 18 10 33 19 5 4 13 8 19 12 4 2 8 6 8 4 10 7 22 12 17 11 6 4 6 6 9 16v-1l14 25 1 1 7 13 11 17v3l-5 1-2-5-8-13-7-14-13-24-3-6-6-10-2-3-10-8-8-4-9-5-16-10-6-3-18-12zm257-10l-2 1-2 3-1-1h-1l3-3v-1" class="st2"/><path d="M639 11l-28 56-14 27-2 4-6 11-11 21-5 9-12 19-11 16-16 27-10 17-3 5-2 2-1 3-9 15-3 6-4 4-16 25m416 58l3-5 28-64 22-53 2-3 41-96 29-68 2-6M256 307l-6 17-1 3-3 13 2-3 2-4 4-4 3-2 6-2 6-1 4 1 2-1v-2l-2-2-7-8-6-6h-3l-1 1v-6l-19-17-16-16-20 24m20-24l3-3 3-2 3-4 22-15 15-12 10-6 6-6 6-4 2-1 2-2 4-3 2-2 7-6 7-4 2-2h2l2-1 2 1h3l2 1 14 9 4 3 9 6 24 15 23 14 12 7 1 1 3 2 15 9 23 14 12 8 11 7 6-9M398 281l2 5v6l-2 11-1 10-1 11v2l-1 10-1 5v3l-2 16-2 10v4l-1 4-1 7-1 3-1 10-2 18-1 1v7l-1 5-2 13v3l-1 6-2 15 26-2 15-1 12-1-3 23-5 24-3 23v8l-5 23-22-1-56-2h-8l-16-1-19-1-8-2v-6l-5-30v-1l-6-42-3-16-2-16-1-2v-4l1-6 1-3 1-4 5-16 11-40 1-4 3-9 1-7-2-14-7-8h-3l-6-2m-67 247l2-1 26-6 29-9 13-4 2-1 6 4-1 8 2 22 3 13 2 17 5 23 3 18-13-2-17-10-14-15-4-4-3-2-5-5-3-4-9-8-1-2-3-4-6-9-8-13-3-2-3-4-4 1-10-17-3-4-1-3-12-45-2-13-6-42 1-2 3-1h17l22-1h4l6-22 4-19 8-26 3-9 6-19 2-10 1-1M321 325l-14 7-3 3-5 2-3 2-1 2-6-5m207 231l5-21 7-27 2-8 2-6 5-20 9-32 2-12 6-24 1-3v-1l2-9 2-6 2-8 1-5 1-8-1-3v-5l-5-6-4-6-6-11-17-28-5-7-8-7-20-11-3 11-4 12-6 27M273 476h3l6-1 20-1 26-2 5-1h1l16-1 26-4-1 13-2 14-2 13-3 23-1 7v4l-3 21-2 11-1 11-3 21 2-1 27 2 16 2 28 6 39 11M343 708l3-17 2-18 6-46 4-23-22-3 3 20v4l-2 4-12 12-22 19-3-2-1-1 29-29 2-3v-7l-3-19v-62l1-35-1-30-4-26-4-17v-2l-8-33-6-26-3-14-3-7-1-2-4 5-4 6m139 105h13m-174-15l-4-1h-19l-5 1h-24m83 211l-16 22m225-160l20 5 12 4 10 4 9 2 24 8 16 5 4 1 23 8h3l14 5 2 1 17 5 32 12 15 30 9 20 7 16 7 18M759 796l14-5 10-3v-15l-1-10v-19l-1-32 1-7 1-29 2-10v-2l3-19 9-49-38-6-21-4-44-7M464 462l-1-2-4-1-3-2-3-1 3 3v3h-14l-3-2v-3l4-2 10 1 6 1 7 1h2l7-1 51-4 18-1h3l25 2 27 1 25 2 17 5 8 2 8 3 3 1 10 4 8 3 10 2 16 6 7 2 5 2 12 5 16 4 15 6 10 3 11 3 15 5 15 6-3 18-7 41-3 18 6 1 2 1v2l-10 67-2 13-2 23v2l-1 10-1 30 2 4 2 2 10 2h6l2 1 1 1-2 4m2-240h-2v-4l2-13 5-23 1-26 1-2v-19M791 703l6 7 3 4v2l-4 29 1 4 19 3h5m-38 36l3-1 7-1M466 457l-1 3-1 1-3 29-1 8v8l-2 16-1 2-1 14-2 3-3 1-3 2-3 20-7 26-6 23m130-348l-10-4-8-6-7-6-6-6-3-5-7-10-2-3-2-4-21-34-13-21-2-4-8-12-2-4-3-3-3-2-4-3-7-4-7-5-3-2-12-6-11-5-18-8-11-6 1-2 18 9 30 14 5 2 5 3 12 8 7 4 3 2 2 3 3 5 7 12 3 7m176 508l5-12-5-15-5-13 12-20 10-17 13-21 11-15 4-3 14-10 12-12 4-6 9-15 5-7 6-10M448 544l1-3 1-4 1-1 9-70-1-3M289 599h38l3 1 4 1h2l-1-6v-35l1-22v-33l-2-34-1-12-2-12-3-16-1-1-1-4-3-16-4-16-10-43-1-6-2-7 6-3 5-4m85 385l6-10 3-6v-3l-4-4-5-2h-5l-2 1-3 5-7 17 2 3 3 4-9-3-21-6-2-2-1-3 10-26-3-3-16-5-23-6-21-7-4 5-12 19m76-5l10 3m190-309l2-2h1l64 15 10 2 3 1 7 2h1l10 2 12 1 5 1 7 1 13 2 20 4 12 4 11 3 8 1 7-16 4-14 9 3 46 12m-255-35l5 9v1l-2-1-6-8m-59 257l8-15 9-32 3-9 4-15 1-4 4-19 6-24 1-6 2-7 4-13 6-22 11-44 7-25M414 711l6-2h3l1 1v2l-4 12-4 2-4 1-4-1-18-5m-20-35l-3-5m69 21l-6 3-3 4-5 12-2 3M291 350l4-9 3 4 1-1 4-3 3-2m464-209l-5 10-18 31-17 28-2 3-2 2-27 45m337-197l-10 21-13 31-46 106-1 5M650 784l12-16 19-26 6-9 20-22m222 88l3-16 2-11 2-9 2-13 4-18 5-25 3-19 4-18 3-17 4-19 2-9 4-23 2-10 3-17 3-11 1-8 2-8 3-20 5-13 4-9m3-4l27-45 8-15 5-11 1-2 1-4 1-3 5-11 8-22M389 689l2 3 1 5m-7 17l-2 3-2 1m51-257l7-4m231 208l19 1 18 3h19m20 4l37 2M282 313l-3-1-2-1-17-17-8-10-19-21-3-3M647 199l4 4 48 46 5 3 1 2 28-48 2-4 2-3 35-58 3-4 2-4m-71 121l1 1 18 17 15 13 9 9 4 2 9 9 11 10 3 2 4 5 13 12 1 3-5 5M723 47l17 6h11l3-1 3-3 3-4 9-19v-6l-2-6-4-5-8-3-2-2 2-5 1-1m-36 785l-16 6-27 9m188-261l40 7-3 22-4 24-3 20v2l-1 14-1 3v1l-3 27-7 50-8 57-1 4-4 23-3 4M387 685l24 7 5 1 4-1 2-2m368 25l3-4 4-1M422 509l-22-1-29-1-34-1m49-108h-15l-18-2-16-1-18-1h-2m-6 0h3M513 59l3 3 13 14 11 12 38 42 58 59m-241 88h2l1 1h1v2l-1 1-2 1-2-1-1-1v-2h1l1-1M173 10l-17 15-3 3-7 6-32 29-9 9-14 15M235 9l5 3 10 8 20 15 9 5 1 1 1 2-2 4h-2l-3 1-1-1-7-4-19-14-12-9-4-7-1-1-3-4-3-6M79 93l3-3 4-5 4-2 24-25 29-27 6-6 5-4 14-12m248 245l-17 25m-6-1l7-10 11-17M865 791l15-84 8-50 4-29 2-17 1-1m-99 135l-2 4h-3m28-322v-14l-2-14-1-4v-6l-11-22-9-13-2-3-5-8-31-29-12-11-6-6-6-4-12-11-6-5-16-15-2-1-27-26-27-25-4-2-6-2-3-2h-1l-1-1-2-6-3-6-24-24-16-18-10-10-11-10-18-20-18-19-7-8-11-13-2-2h-1l-8-8-13-9-12-9-23-17-19-7M625 191l2 2 3 4 6 6 5 2 1 2 2 3m630 28l-2-1-11-4 11 3 2 1m-210-92l53 23 19 8 35 16 54 24 34 15 2 1M441 449l1-9 3-16 4-17 2-10v-2l2-5 6-25M224 265l1 2 27 27 21 24 2 4m-2-275l-2-3-5-5-29-21-7-6m524-7l-3-1M465 461h-3l-3 1h-5m-51-355v-1l1-1M733 205l7 3 43 32 78 63 7 6 24 20 4 3 6 4 6 3h1l5 2 29 12 6 2 13 4 6 3h-2l-7-1-12-5-30-9-9-4-7-3h-1l-6-4-6-5-76-63-32-26-43-32-4-5-5-3-25-21-36-30-3-3-4-3-63-51-46-38-17-13-4-3 5-6 1-2 3 1 33 14 40 18 73 31h4l8 4 19 7 54 23 7 3 179 78 7 3 2 1h1l25 10 23 9 15 6 22 10 9 2 53 23 9 5 7 2 2 2 9 4h3l11 5 7 3 55 23 7 2 10 3 44 10 8 3m-385 3l-7 2-40 5-6 1-21 2-11 1-5 1h-9l-6 1-20 1h-8l-18 1h-41l-15 1h-22l-17 1h-10l2-10 2-9 1-9-6-10-1-2-19-27-2-1-14-6-4-2-5-2m-211-61l5-9 7-11 5-8 6-10 5-8 1-2 12-20 1-2 3-4 4-5 8-12 2-1 4-5 31-31 25-23 7-8 17-19M933 465l4-12 1-5 7-19 3-11 2-3 6-20 5-12 5-14 2-6 1-6 12-29 11-26 3-7 6-12 14-34 2-4 2-6 3-7 7-17 7-15 9-20 11-26 8-19 12-27 6-15 5-2-22 50-1 3-4 10-5 14-6 13-1 2-7 16-14 34-3 5-1 2-3-1-7-3-49-20-2-1-6-1-180-78-6-6M968 363l5 1 9 2 67 23 32 10 2 1 24 8 11 3 48 16 1-2 1-3 10-18 27-45 7-12 2-3 6-10 4-8 6-8 42-72 2-2M640 392l1-4 3-30h-10l-19 1h-52l4-6 5-2 15-7 24-11 21-12 10-4 23-13 23-12 13-6 15-10 9-4 35-19 20-11 3-2M550 5l-14 27m615 481l1-5 1-12 3-6 1-14 7-42v-3l2-4 2 1h2l40 14 9 4-12-2-6-2-11-3-11-4-10-4-4-2-6-2h-4l-5-1-14-5-2-1-18-6-9-5m161 197l-3-2 3-1m-3 1l-8-2-4 19-2 9-2 13-6 33-2 13-6 43-5 29-1 4v2l-5 28m33-193l-6-1h-2l-6-1-5-1-13-2h-2l-11-2-5-1-16-3h-12l-18-3-8-2-13-2h-3l-2 12-8 52-1 10v2l-1 2-3 24-1 5-2 12-7 45-3 19-5 32M1107 799l5-32 3-19 3-21 2-11v-3l5-27 3-23v-3l1-3 5-30 2-15 3-15 1-6 1-7v-2l13 1 28 5 6 2m-51-7v-2l4 1 2-12 1-8v-6l-3 6-3 19-29-5-28-5-29-4-50-8h-4l4 2h2l4 1 20 4 61 10 28 5h8l11 2h1M803 766l-3 3-5 7-2 2v8m294-695l6-13 2-3 3-8 16-38 2-5 4-12 1-5M563 360l-2 1-3 1-2 2M693 99l-1 3-1 2-24 47-11 23-7 14v8l-2 3v2l-7 7-1 2-2 2-16 32-16 33-2 5-20 39-14 28-2 5m-13 5l6-3-2 6M539 33l3-1 6 3 16 6 49 22 61 26 8 3 4 3 3 2-25 50-12 25-11 22-4 6-2 6-18 36-5 8-14 30-19 39-17 33-2 4m170 323l-4 6-6 7-6 9-7 10-21-17-22-17-24-16-13-9-20-16-13-9-8-6-27-20-8-5 6-9 6-6 9-15 1-2 6-14 4-8 2-5 6-14 12-24 9-19 1-2 11-21 4-11 4-9 4-18 2-14 1-8M471 143l2 2 4 6 3 5 8 12 4 7 6 10 19 33 4 5 2 3 1 2 6 8 4 5 5 7 5 3 9 7 12 6 27 12 2 2h-4l-28-12-9-7-10-7m455 307l-14-2-8-2-9-1-13-2-8-1-41-7 1-2 23-67m215 81l3-22 2-12m4-26v-9l2-23 3-19 2-11 1-4 1-2 1-3 2-4 1-1 9-16 4-6 23-39 7-12 9-16 6-9 3-6 44-73 9-15m0 239l-39-13-13-4-9-3M867 794l-19-7-26-10-10-3-13-5-9-2-1-1m-61 14l1 2-1 1-1 2h-1l-2 1-1-1h-1l-1-1-1-3v-1l1-1h1l1-1h2l2 2h1m-7-1l1-4v-3l-3-7-10-12-11-12-4-4-7-5-3-2-6-2-6-4-8-5-7-4-15-7-3-1-16-7-6-2-15-11-12-9-8-10-13-15-14-11-11-5-21-9-15-6-9-4-18-10-11 15-44 63-4 4-3 5-17 20-1 2m80-108l5-15 10-27-52-2-18-2h-13l-4 16-2 13-4 15-8 35-11 33 1 6M496 567l20 4 6 3 16 12 13 10-28 32-16 18-4 6-6 8-5 8-7 11-10 11-9 8-12 3h-18l-11 3-6 3-5 4-7 6m878-378l-10-1-42-9-8-2-55-22-11-5-7-5-31-13-11-3-53-22-7-5-22-9-5-2-2 4v1l-6 3M1021 247l-16 37-6 13-2 5-1 3-4 9-9 25-9 22-1 3M384 222l-3 5-4 3-11 10-3 3-14 12-11 10h-1l-21 19-3 2-1 2-2 2-3 5-4 3-3 5v8l4 8 5 3 5 2 8 1h4l7-1 21 4 23 4 10 2 8 1 11 3 22 4 21 3h6l1-1 2-1h9l7 7 3 1 38 7 13 3 9 1 5 1h4l2-1M236 267l41 47 15 9 5 2h6l5 1h5l9-2M233 268l41 46 9 10 5 6 4 3 4 1 3 1h7l12-4 4-1 7-1h6l19 4 22 5 10 2 8 1 10 1 24 5 18 4 3 1 5 3-1-4 2-6m15 3l1 2v3l-2 4-4 2h-5l-4-2-1-1-1-2M277 314l11 12 4 3 12 6 2 4m245 28l-3 1h-6l-20-2-25-6-21-4h-3l-5 1m-185-28l-6-7-4-8m511 450l-2-1h-3l-5-3-20-14-12-9-6-4-2-2-4-3-23-17 7 26 5 18 3 10 3 7 1 7m15-116l4 4 1 3v2l-1 4-2 2-3 2-4 1-6-2-2-2-1-2-1-3 1-1v-3l5-5 3-1 3 1h3m520-60l-6 28-3 17-6 29-8 55-5 30v2l-1 4-4 28m-439-35l14 5 13 5 5 2 14 5 30 13 5 1M918 1l28 11 5 2 17 8 18 8 15 7 26 10 6 3 3 1h3l8 3 10 4 34 15 4 1 21 9 24 11 29 12 40 17 46 20 23 9 4 2M1082 95l4-10 4-9 1-3 4-8 14-34 3-7 6-13 3-4M389 689l-6 15-2 3-3 2-4 1-5-1-3-4-1-3 1-2 4-13 2-3 3-2 5-4 3 1 3 2 1 4 2 4m-9-11l4-3M374 710l-4 3-1-4M20 5l20 24 9 11 4 5 22 27 11 13 3 3 15 18 25 33 4 4 20 24 24 31m-2 2l-31-37-17-20-22-28M127 143l-1-2-16-17-12-9-4-2M4-1l6 4m100 121l-13-14-13-17-2-3-11-14-15-17-25-31L10 3m730 677l14 29 7 15 15 35 6 2h2m-440 37l2-4 20-28-20 28-2 4M107 113l22 26M91 87l-2 1-8 8-9 7-11 12-3 4-5 7-3 3-8 11-8 12-6 8-2 5-6 19-1 4-2 6-2 11-1 6M15 205v-10l1-10 1-2 6-19 7-15 7-10 12-16 12-14 18-16M19 310l4 16 4 18 4 22 1 11 1 20 1 7-1 22v23m1093 210l2 1m-16 88h3m39-162l-8 4-7 6m4-26l2 5 5 6 4 2m121-429l-66-28-41-18-8-3-45-19-22-9-3-1-39-17-5-3-9-4-1-1m-77 310l-12-1-21-7-14-5-5-2-6-2-7-2m48 12l8 2m204-63l6 3 12 5m82 29l22 6 9 1m0 3l-9-3-22-5m-83-29l-12-5-7-3M778 133l4-10 38-63M255 795l-26-17-22-15-11-8-4-3-3-2-4-4-4-6-24-28-9-9-10-14-12-17-21-35-19-27-4-6-3-5-15-26-2-2-4-8-10-24-5-14-2-11-4-26-3-27v-8m520-95l3-5 1-3 16-33 20-39 10-20 4-9 20-41 1-6 1-3v-3l1-2 3-4 2-2 2-1h1l11-22 10-21 23-44 2-4 1-1M689 97h-5l-9-3-64-27-65-30-11-3M133 144l9 7 5 5 5 4 4 2M114 63l2 2-7 9-3 6-2 7v10l2 3 28 35 2 3 6 7 14 17 16 20 15 18-12 8-4-4-16-19-11-13-8-10-22-26-3-5-10-11-7-7-3-2-4-2-5-1h-4l-3 1-7 4-9 6m1056-33l1-3m20 507h2l2 1m-33 208l-3-1M973 361v3m77-112l11 3 44 19 17 6m-71-30l9 5m61 27l-16-8m24 8h2l10 5 2 2M729 782l2 5m478-661v-3" class="st3"/><path d="M639 11l-28 56-14 27-2 4-6 11-11 21-5 9-12 19-11 16-16 27-10 17-3 5-2 2-1 3-9 15-3 6-4 4-16 25m416 58l3-5 28-64 22-53 2-3 41-96 29-68 2-6M256 307l-6 17-1 3-3 13 2-3 2-4 4-4 3-2 6-2 6-1 4 1 2-1v-2l-2-2-7-8-6-6h-3l-1 1v-6l-19-17-16-16-20 24m20-24l3-3 3-2 3-4 22-15 15-12 10-6 6-6 6-4 2-1 2-2 4-3 2-2 7-6 7-4 2-2h2l2-1 2 1h3l2 1 14 9 4 3 9 6 24 15 23 14 12 7 1 1 3 2 15 9 23 14 12 8 11 7 6-9M398 281l2 5v6l-2 11-1 10-1 11v2l-1 10-1 5v3l-2 16-2 10v4l-1 4-1 7-1 3-1 10-2 18-1 1v7l-1 5-2 13v3l-1 6-2 15 26-2 15-1 12-1-3 23-5 24-3 23v8l-5 23-22-1-56-2h-8l-16-1-19-1-8-2v-6l-5-30v-1l-6-42-3-16-2-16-1-2v-4l1-6 1-3 1-4 5-16 11-40 1-4 3-9 1-7-2-14-7-8h-3l-6-2m-67 247l2-1 26-6 29-9 13-4 2-1 6 4-1 8 2 22 3 13 2 17 5 23 3 18-13-2-17-10-14-15-4-4-3-2-5-5-3-4-9-8-1-2-3-4-6-9-8-13-3-2-3-4-4 1-10-17-3-4-1-3-12-45-2-13-6-42 1-2 3-1h17l22-1h4l6-22 4-19 8-26 3-9 6-19 2-10 1-1M321 325l-14 7-3 3-5 2-3 2-1 2-6-5m207 231l5-21 7-27 2-8 2-6 5-20 9-32 2-12 6-24 1-3v-1l2-9 2-6 2-8 1-5 1-8-1-3v-5l-5-6-4-6-6-11-17-28-5-7-8-7-20-11-3 11-4 12-6 27M273 476h3l6-1 20-1 26-2 5-1h1l16-1 26-4-1 13-2 14-2 13-3 23-1 7v4l-3 21-2 11-1 11-3 21 2-1 27 2 16 2 28 6 39 11M343 708l3-17 2-18 6-46 4-23-22-3 3 20v4l-2 4-12 12-22 19-3-2-1-1 29-29 2-3v-7l-3-19v-62l1-35-1-30-4-26-4-17v-2l-8-33-6-26-3-14-3-7-1-2-4 5-4 6m139 105h13m-174-15l-4-1h-19l-5 1h-24m83 211l-16 22m225-160l20 5 12 4 10 4 9 2 24 8 16 5 4 1 23 8h3l14 5 2 1 17 5 32 12 15 30 9 20 7 16 7 18M759 796l14-5 10-3v-15l-1-10v-19l-1-32 1-7 1-29 2-10v-2l3-19 9-49-38-6-21-4-44-7M464 462l-1-2-4-1-3-2-3-1 3 3v3h-14l-3-2v-3l4-2 10 1 6 1 7 1h2l7-1 51-4 18-1h3l25 2 27 1 25 2 17 5 8 2 8 3 3 1 10 4 8 3 10 2 16 6 7 2 5 2 12 5 16 4 15 6 10 3 11 3 15 5 15 6-3 18-7 41-3 18 6 1 2 1v2l-10 67-2 13-2 23v2l-1 10-1 30 2 4 2 2 10 2h6l2 1 1 1-2 4m2-240h-2v-4l2-13 5-23 1-26 1-2v-19M791 703l6 7 3 4v2l-4 29 1 4 19 3h5m-38 36l3-1 7-1M466 457l-1 3-1 1-3 29-1 8v8l-2 16-1 2-1 14-2 3-3 1-3 2-3 20-7 26-6 23m130-348l-10-4-8-6-7-6-6-6-3-5-7-10-2-3-2-4-21-34-13-21-2-4-8-12-2-4-3-3-3-2-4-3-7-4-7-5-3-2-12-6-11-5-18-8-11-6 1-2 18 9 30 14 5 2 5 3 12 8 7 4 3 2 2 3 3 5 7 12 3 7m176 508l5-12-5-15-5-13 12-20 10-17 13-21 11-15 4-3 14-10 12-12 4-6 9-15 5-7 6-10M448 544l1-3 1-4 1-1 9-70-1-3M289 599h38l3 1 4 1h2l-1-6v-35l1-22v-33l-2-34-1-12-2-12-3-16-1-1-1-4-3-16-4-16-10-43-1-6-2-7 6-3 5-4m85 385l6-10 3-6v-3l-4-4-5-2h-5l-2 1-3 5-7 17 2 3 3 4-9-3-21-6-2-2-1-3 10-26-3-3-16-5-23-6-21-7-4 5-12 19m76-5l10 3m190-309l2-2h1l64 15 10 2 3 1 7 2h1l10 2 12 1 5 1 7 1 13 2 20 4 12 4 11 3 8 1 7-16 4-14 9 3 46 12m-255-35l5 9v1l-2-1-6-8m-59 257l8-15 9-32 3-9 4-15 1-4 4-19 6-24 1-6 2-7 4-13 6-22 11-44 7-25M414 711l6-2h3l1 1v2l-4 12-4 2-4 1-4-1-18-5m-20-35l-3-5m69 21l-6 3-3 4-5 12-2 3M291 350l4-9 3 4 1-1 4-3 3-2m464-209l-5 10-18 31-17 28-2 3-2 2-27 45m337-197l-10 21-13 31-46 106-1 5M650 784l12-16 19-26 6-9 20-22m222 88l3-16 2-11 2-9 2-13 4-18 5-25 3-19 4-18 3-17 4-19 2-9 4-23 2-10 3-17 3-11 1-8 2-8 3-20 5-13 4-9m3-4l27-45 8-15 5-11 1-2 1-4 1-3 5-11 8-22M389 689l2 3 1 5m-7 17l-2 3-2 1m51-257l7-4m231 208l19 1 18 3h19m20 4l37 2M282 313l-3-1-2-1-17-17-8-10-19-21-3-3M647 199l4 4 48 46 5 3 1 2 28-48 2-4 2-3 35-58 3-4 2-4m-71 121l1 1 18 17 15 13 9 9 4 2 9 9 11 10 3 2 4 5 13 12 1 3-5 5M723 47l17 6h11l3-1 3-3 3-4 9-19v-6l-2-6-4-5-8-3-2-2 2-5 1-1m-36 785l-16 6-27 9m188-261l40 7-3 22-4 24-3 20v2l-1 14-1 3v1l-3 27-7 50-8 57-1 4-4 23-3 4M387 685l24 7 5 1 4-1 2-2m368 25l3-4 4-1M422 509l-22-1-29-1-34-1m49-108h-15l-18-2-16-1-18-1h-2m-6 0h3M513 59l3 3 13 14 11 12 38 42 58 59m-241 88h2l1 1h1v2l-1 1-2 1-2-1-1-1v-2h1l1-1M173 10l-17 15-3 3-7 6-32 29-9 9-14 15M235 9l5 3 10 8 20 15 9 5 1 1 1 2-2 4h-2l-3 1-1-1-7-4-19-14-12-9-4-7-1-1-3-4-3-6M79 93l3-3 4-5 4-2 24-25 29-27 6-6 5-4 14-12m248 245l-17 25m-6-1l7-10 11-17M865 791l15-84 8-50 4-29 2-17 1-1m-99 135l-2 4h-3m28-322v-14l-2-14-1-4v-6l-11-22-9-13-2-3-5-8-31-29-12-11-6-6-6-4-12-11-6-5-16-15-2-1-27-26-27-25-4-2-6-2-3-2h-1l-1-1-2-6-3-6-24-24-16-18-10-10-11-10-18-20-18-19-7-8-11-13-2-2h-1l-8-8-13-9-12-9-23-17-19-7M625 191l2 2 3 4 6 6 5 2 1 2 2 3m630 28l-2-1-11-4 11 3 2 1m-210-92l53 23 19 8 35 16 54 24 34 15 2 1M441 449l1-9 3-16 4-17 2-10v-2l2-5 6-25M224 265l1 2 27 27 21 24 2 4m-2-275l-2-3-5-5-29-21-7-6m524-7l-3-1M465 461h-3l-3 1h-5m-51-355v-1l1-1M733 205l7 3 43 32 78 63 7 6 24 20 4 3 6 4 6 3h1l5 2 29 12 6 2 13 4 6 3h-2l-7-1-12-5-30-9-9-4-7-3h-1l-6-4-6-5-76-63-32-26-43-32-4-5-5-3-25-21-36-30-3-3-4-3-63-51-46-38-17-13-4-3 5-6 1-2 3 1 33 14 40 18 73 31h4l8 4 19 7 54 23 7 3 179 78 7 3 2 1h1l25 10 23 9 15 6 22 10 9 2 53 23 9 5 7 2 2 2 9 4h3l11 5 7 3 55 23 7 2 10 3 44 10 8 3m-385 3l-7 2-40 5-6 1-21 2-11 1-5 1h-9l-6 1-20 1h-8l-18 1h-41l-15 1h-22l-17 1h-10l2-10 2-9 1-9-6-10-1-2-19-27-2-1-14-6-4-2-5-2m-211-61l5-9 7-11 5-8 6-10 5-8 1-2 12-20 1-2 3-4 4-5 8-12 2-1 4-5 31-31 25-23 7-8 17-19M933 465l4-12 1-5 7-19 3-11 2-3 6-20 5-12 5-14 2-6 1-6 12-29 11-26 3-7 6-12 14-34 2-4 2-6 3-7 7-17 7-15 9-20 11-26 8-19 12-27 6-15 5-2-22 50-1 3-4 10-5 14-6 13-1 2-7 16-14 34-3 5-1 2-3-1-7-3-49-20-2-1-6-1-180-78-6-6M968 363l5 1 9 2 67 23 32 10 2 1 24 8 11 3 48 16 1-2 1-3 10-18 27-45 7-12 2-3 6-10 4-8 6-8 42-72 2-2M640 392l1-4 3-30h-10l-19 1h-52l4-6 5-2 15-7 24-11 21-12 10-4 23-13 23-12 13-6 15-10 9-4 35-19 20-11 3-2M550 5l-14 27m615 481l1-5 1-12 3-6 1-14 7-42v-3l2-4 2 1h2l40 14 9 4-12-2-6-2-11-3-11-4-10-4-4-2-6-2h-4l-5-1-14-5-2-1-18-6-9-5m161 197l-3-2 3-1m-3 1l-8-2-4 19-2 9-2 13-6 33-2 13-6 43-5 29-1 4v2l-5 28m33-193l-6-1h-2l-6-1-5-1-13-2h-2l-11-2-5-1-16-3h-12l-18-3-8-2-13-2h-3l-2 12-8 52-1 10v2l-1 2-3 24-1 5-2 12-7 45-3 19-5 32M1107 799l5-32 3-19 3-21 2-11v-3l5-27 3-23v-3l1-3 5-30 2-15 3-15 1-6 1-7v-2l13 1 28 5 6 2m-51-7v-2l4 1 2-12 1-8v-6l-3 6-3 19-29-5-28-5-29-4-50-8h-4l4 2h2l4 1 20 4 61 10 28 5h8l11 2h1M803 766l-3 3-5 7-2 2v8m294-695l6-13 2-3 3-8 16-38 2-5 4-12 1-5M563 360l-2 1-3 1-2 2M693 99l-1 3-1 2-24 47-11 23-7 14v8l-2 3v2l-7 7-1 2-2 2-16 32-16 33-2 5-20 39-14 28-2 5m-13 5l6-3-2 6M539 33l3-1 6 3 16 6 49 22 61 26 8 3 4 3 3 2-25 50-12 25-11 22-4 6-2 6-18 36-5 8-14 30-19 39-17 33-2 4m170 323l-4 6-6 7-6 9-7 10-21-17-22-17-24-16-13-9-20-16-13-9-8-6-27-20-8-5 6-9 6-6 9-15 1-2 6-14 4-8 2-5 6-14 12-24 9-19 1-2 11-21 4-11 4-9 4-18 2-14 1-8M471 143l2 2 4 6 3 5 8 12 4 7 6 10 19 33 4 5 2 3 1 2 6 8 4 5 5 7 5 3 9 7 12 6 27 12 2 2h-4l-28-12-9-7-10-7m455 307l-14-2-8-2-9-1-13-2-8-1-41-7 1-2 23-67m215 81l3-22 2-12m4-26v-9l2-23 3-19 2-11 1-4 1-2 1-3 2-4 1-1 9-16 4-6 23-39 7-12 9-16 6-9 3-6 44-73 9-15m0 239l-39-13-13-4-9-3M867 794l-19-7-26-10-10-3-13-5-9-2-1-1m-61 14l1 2-1 1-1 2h-1l-2 1-1-1h-1l-1-1-1-3v-1l1-1h1l1-1h2l2 2h1m-7-1l1-4v-3l-3-7-10-12-11-12-4-4-7-5-3-2-6-2-6-4-8-5-7-4-15-7-3-1-16-7-6-2-15-11-12-9-8-10-13-15-14-11-11-5-21-9-15-6-9-4-18-10-11 15-44 63-4 4-3 5-17 20-1 2m80-108l5-15 10-27-52-2-18-2h-13l-4 16-2 13-4 15-8 35-11 33 1 6M496 567l20 4 6 3 16 12 13 10-28 32-16 18-4 6-6 8-5 8-7 11-10 11-9 8-12 3h-18l-11 3-6 3-5 4-7 6m878-378l-10-1-42-9-8-2-55-22-11-5-7-5-31-13-11-3-53-22-7-5-22-9-5-2-2 4v1l-6 3M1021 247l-16 37-6 13-2 5-1 3-4 9-9 25-9 22-1 3M384 222l-3 5-4 3-11 10-3 3-14 12-11 10h-1l-21 19-3 2-1 2-2 2-3 5-4 3-3 5v8l4 8 5 3 5 2 8 1h4l7-1 21 4 23 4 10 2 8 1 11 3 22 4 21 3h6l1-1 2-1h9l7 7 3 1 38 7 13 3 9 1 5 1h4l2-1M236 267l41 47 15 9 5 2h6l5 1h5l9-2M233 268l41 46 9 10 5 6 4 3 4 1 3 1h7l12-4 4-1 7-1h6l19 4 22 5 10 2 8 1 10 1 24 5 18 4 3 1 5 3-1-4 2-6m15 3l1 2v3l-2 4-4 2h-5l-4-2-1-1-1-2M277 314l11 12 4 3 12 6 2 4m245 28l-3 1h-6l-20-2-25-6-21-4h-3l-5 1m-185-28l-6-7-4-8m511 450l-2-1h-3l-5-3-20-14-12-9-6-4-2-2-4-3-23-17 7 26 5 18 3 10 3 7 1 7m15-116l4 4 1 3v2l-1 4-2 2-3 2-4 1-6-2-2-2-1-2-1-3 1-1v-3l5-5 3-1 3 1h3m520-60l-6 28-3 17-6 29-8 55-5 30v2l-1 4-4 28m-439-35l14 5 13 5 5 2 14 5 30 13 5 1M918 1l28 11 5 2 17 8 18 8 15 7 26 10 6 3 3 1h3l8 3 10 4 34 15 4 1 21 9 24 11 29 12 40 17 46 20 23 9 4 2M1082 95l4-10 4-9 1-3 4-8 14-34 3-7 6-13 3-4M389 689l-6 15-2 3-3 2-4 1-5-1-3-4-1-3 1-2 4-13 2-3 3-2 5-4 3 1 3 2 1 4 2 4m-9-11l4-3M374 710l-4 3-1-4M20 5l20 24 9 11 4 5 22 27 11 13 3 3 15 18 25 33 4 4 20 24 24 31m-2 2l-31-37-17-20-22-28M127 143l-1-2-16-17-12-9-4-2M4-1l6 4m100 121l-13-14-13-17-2-3-11-14-15-17-25-31L10 3m730 677l14 29 7 15 15 35 6 2h2m-440 37l2-4 20-28-20 28-2 4M107 113l22 26M91 87l-2 1-8 8-9 7-11 12-3 4-5 7-3 3-8 11-8 12-6 8-2 5-6 19-1 4-2 6-2 11-1 6M15 205v-10l1-10 1-2 6-19 7-15 7-10 12-16 12-14 18-16M19 310l4 16 4 18 4 22 1 11 1 20 1 7-1 22v23m1093 210l2 1m-16 88h3m39-162l-8 4-7 6m4-26l2 5 5 6 4 2m121-429l-66-28-41-18-8-3-45-19-22-9-3-1-39-17-5-3-9-4-1-1m-89 309l-21-7-14-5-5-2-6-2-7-2m48 12l8 2m204-63l6 3 12 5m82 29l22 6 9 1m0 3l-9-3-22-5m-83-29l-12-5-7-3M778 133l4-10 38-63M255 795l-26-17-22-15-11-8-4-3-3-2-4-4-4-6-24-28-9-9-10-14-12-17-21-35-19-27-4-6-3-5-15-26-2-2-4-8-10-24-5-14-2-11-4-26-3-27v-8m520-95l3-5 1-3 16-33 20-39 10-20 4-9 20-41 1-6 1-3v-3l1-2 3-4 2-2 2-1h1l11-22 10-21 23-44 2-4 1-1M689 97h-5l-9-3-64-27-65-30-11-3M133 144l9 7 5 5 5 4 4 2M114 63l2 2-7 9-3 6-2 7v10l2 3 28 35 2 3 6 7 14 17 16 20 15 18-12 8-4-4-16-19-11-13-8-10-22-26-3-5-10-11-7-7-3-2-4-2-5-1h-4l-3 1-7 4-9 6m1056-33l1-3m20 507h2l2 1m-33 208l-3-1M973 361v3m77-112l11 3 44 19 17 6m-71-30l9 5m61 27l-16-8m24 8h2l10 5 2 2M729 782l2 5m478-661v-3" class="st4"/><path d="M1284 229l-2 3m4 0l-2-3 1-2-5-3M1101 69l2-4m-38 63l-1 2 4 1 3 2 1-3m23-68l-1 3 7 4-3 5-2 6-2 3-5-1-3-1-2 3m10 0l-2 3m-6 2l-4-1m139 246M1089 82l-3 7-19 42-2 6m49-103l1-3-7-3-1 3M9 262l1-26v-1M507 68l8-7m187 199l3-3m531 343" class="st5"/><path d="M891 700l-3 19-5 18-6 18m30-196l4-20 10-29 5-9 3-4 6-5 12-28m42-137l-4 9-4 7-5 6-5 5-4 1" class="st6"/><path d="M640 392l-1 6m150 369l-5-3M384 222l3-4m161 144l6-3M368 717l2-4m-28 80l2-10 3-5v-2l2-4 6-18M177 198l47 55 12 14m-3 1l-11-13-47-55m-70-86L90 97 76 79 51 48 24 16m760 745h5m-426 2l38-45m6 0l-41 48M80 102l-4-4-3-4-2-12-2-7-8-11-10-16M25 14l27 33m26 31l14 18 15 16m-93 99l-2 44-1 7 1 15 1 4 3 17 3 12m910 165l3-10m-66-155l26 22 7 4 6 5 7 2 30 11m230-53l47 20 11 5 24 4M1253 332l-23-5-12-4-47-20m-615 60l-6 3m599 156l2-9M34 453l-1-4" class="st4"/><path d="M891 700l-3 19-5 18-6 18m30-196l4-20 10-29 5-9 3-4 6-5 12-28" class="st7"/><path d="M179 3l-8 7-21 18-9 10-10 10-17 16-8 10-2 5-2 8-1 6-3 7-5 4-6 1-8-1h-6l-5 2-3 3-6 5-10 12-10 13m504 113l-5-3-9-12-7-10-3-4-12-19-11-18-5-9-7-10-10-18-2-4-4-3-4-2-10-7-6-4-5-3-2-1-10-4-51-26-69-33-25-13-9-5-8-4-11-7-15-12-9-8-8-10m129 752l13-38m-29 81l2-5 22-30M87 105l-7-3M228 4l7 9 9 8 15 11 11 7 13 6 5 2 13 6 12 7 68 34 59 29 10 6 6 3 13 9 2 2M78 78L52 47l14 15 9 8 5 4 3 1h11l8-5 18-17 16-16 16-13 18-15" class="st3"/><path d="M1264 68l15 5M892 686l-1 15m-40 33l9-7 10-12 9-13 6-16 4-12m395-590l-21-11-9-6m-253 226l-1 7-11 26" class="st6"/><path d="M1088 88l-21 47-8 20-5 14-7 16-7 15-7 16-7 18-13 29-4 11-8 19-4 8-12 27-4 10-4 12-6 17-8 39-3 16-4 20-7 24-6 14-15 33-8 20-9 27-6 25-8 54-5 46-5 27-5 20-18 60m246-758l7-12 6-5 5-4 6-3m28-10l-9 10-9 9-19 16-9 7-8 9-9 16m93-37l17 10 10 4-17-11-14-14-4-8-3-8m38 41l45 24 13 6m-11-2l-12-5-17-10-36-19-7-4-4-2-12-8M1201 39l-8-3-9-4-9-3-10-1h-10l-8 2-9 2-7 3-5 3-7 5-10 9m13-44l-3 3-3 6-6 17-13 30M860 791l9-28 10-32 4-19 5-27 1-12 5-35 8-58 4-20 10-28 8-20 15-34 5-14 10-31 2-12 9-41 3-13 6-17 4-13 4-10 19-42 4-10 3-8 3-5 10-26 45-103 18-41" class="st8"/><path d="M179 3l-8 7-21 18-9 10-10 10-17 16-8 10-2 5-2 8-1 6-3 7-5 4-6 1-8-1h-6l-5 2-3 3-6 5-10 12-10 13m504 113l-5-3-9-12-7-10-3-4-12-19-11-18-5-9-7-10-10-18-2-4-4-3-4-2-10-7-6-4-5-3-2-1-10-4-51-26-69-33-25-13-9-5-8-4-11-7-15-12-9-8-8-10m129 752l13-38m-29 81l2-5 22-30M87 105l-7-3M228 4l7 9 9 8 15 11 11 7 13 6 5 2 13 6 12 7 68 34 59 29 10 6 6 3 13 9 2 2M78 78L52 47l14 15 9 8 5 4 3 1h11l8-5 18-17 16-16 16-13 18-15" class="st4"/><path d="M1264 68l15 5M892 686l-1 15m-40 33l9-7 10-12 9-13 6-16 4-12m395-590l-21-11-9-6m-253 226l-1 7-11 26m-44-5" class="st7"/><path d="M1088 88l-21 47-8 20-5 14-7 16-7 15-7 16-7 18-13 29-4 11-8 19-4 8-12 27-4 10-4 12-6 17-8 39-3 16-4 20-7 24-6 14-15 33-8 20-9 27-6 25-8 54-5 46-5 27-5 20-18 60m246-758l7-12 6-5 5-4 6-3m28-10l-9 10-9 9-19 16-9 7-8 9-9 16m93-37l17 10 10 4-17-11-14-14-4-8-3-8m38 41l45 24 13 6m-11-2l-12-5-17-10-36-19-7-4-4-2-12-8M1201 39l-8-3-9-4-9-3-10-1h-10l-8 2-9 2-7 3-5 3-7 5-10 9m13-44l-3 3-3 6-6 17-13 30M860 791l9-28 10-32 4-19 5-27 1-12 5-35 8-58 4-20 10-28 8-20 15-34 5-14 10-31 2-12 9-41 3-13 6-17 4-13 4-10 19-42 4-10 3-8 3-5 10-26 45-103 18-41" class="st9"/><path d="M1134 11l7-2h17l11 6 23 15m-93 38l-7 12-4 8m-4 3l13-27" class="st8"/><path d="M1134 11l7-2h17l11 6 23 15m-93 38l-7 12-4 8m-4 3l13-27" class="st9"/></g><path d="M318 546h-2v-2l1 1h1v1zm154-19v1h-1l-1-1v-1h2v1zm9 19l1-2 11 1v2l-12-1zm-20-2v-1h11v2l-11-1zm14-3h4l1 1v3h-6v-3l1-1zM349 0l5 2-1 2h-3l-2 4-4 10 1 2-1 3-1 2v3l-2 4-1 1v3l-1 3-2 4-1 1-2 4-2 3-1 3-2 2-1 2-1 1 1 1v2l-4 8-1 1-2 1h-2l-1 3-2 4v2l-5 10h1l-7 13-1-1-5 9-6 9-3 7h-3l-3-2-1-1-3-2-2 3 7 5-3 4-2 3-3 3h1v1l-1-1-4 4h2l-1 1v-1h-1l-12 12 2 2h-1v-1h-1l-5 2 1 1h1l1 1-2 1v-1l-1-1-5 4-4 4 1 1-2 2-2 1-9 9-11 8-7 6-8 6-3 4-3 2-4 2-1 1-4-4-15 12 2 1-2 4-5 5-3 4-2 1-1 2-3 1-8-7-1 2 7 6v4l-2 1-3-1-2-3-4-1h-2v3l-1 5v4l-3 5-3-2-3-1h-5l-4-1-2-2-1 3-2-1-1 2-1 1-3 9 11 9-7 22 1 2-3 7-1 4-1 6-1 2-1 4-1 2-2 8h-2l-2 6v4l-1 4-1 7v4l-1 2v3h2l-1 2-1 1v10l-1 1-1-1-1 6v3l-1 1v4h1v6l-1 2 1 1v2l-1 1v21l-1 3v1l-1 1v2h1v8l-1 2v2l2 1v2l-2 1v23l1 2h3v1h-3l-1 2 3 1v2l-2 2h-5v4l6 1 4 1h2v13h-2l1 6h-3v2l3 1 1 8h1l1 3h-1v4l2 2-2 1 5 13 1 6-2 1v2l-3 2 1 1v1l5-1 2 5 13 24 9 12 39-10-1-3 1-1 1 1-6-12h-1l-3-7-1 1v-1l1-1-1-2-2-5-1-4 1-1-3-6-4 1 4-2-3-7h-3v1h-1l-1-2h2v-1h-2l1-1h3l-2-12-1-4-4 1 1 2h-1l-2-7h1l1 3h3l-2-13-4 1v-2h4l-1-3-4 1v-1h4l-3-25h-2v-1h-1v-3h1v-1h1v-3l-5 1-1 2-1-5 2 2h5l-1-4h-1v-1h-3l-1-2h-2v-3h-2l1-2h1l1-1h1-3v-2h1v1h1v-3h-1v1h-1v-3h1v1h3v-2h-2v-3h7l1-9h-2v-2h-6v-2h1v-2h2v-2h2v-2h-1v-2h1v-2h-1v-2h4v-1h-3v-2h3v-3h1v-2h-4l1-6h-3l1-1v-1l1-1h1v-9l1-3v-3l1-2h-2v-1h-2v-2l2 2v-6l1-3h1l1-3h1l1-6h-2l1-1h-4l1-2h1v1h2v-2h-1v1h-2l1-3 1 1h5l1-2h1l4-10 3-8-1-1-1 1 1-2v1h1l2-2v-3h1l4-8 1-4 1-3v-1h1l2-3 2-4-1-2v1l-1-2h1l1 1 1-1-1-1 2-1-1-1-1 1-1-2h2l-1-1h2v1l10-13 5-7h-2l2-1 1 1 4-6 2-2 2-3-1-1 2-2 1 1 2-2v-1l-1-1 2-1h1l2-1 1-1-1-1-1 1v-1l2-2 1 1v1l6-5-2-2 2-2 3 2 5-4 3-2 10-10 5-3-1-1 2-1 1-2 1 1 3-3-1-1-1 1v-1l1-1h1l-1 1h1l8-7 4-3 2-3 3-3 4-3-1-1h1l3-2 1-1 1 1 5-5v-1l-1 1-1-1 2-1v2l6-6 1 1 2-2 17-15 3-2-1-1-1-2 2-1h1l3-2-1-1v-2l4-5 5-7 3-2 2-3 3-2h1l6-6-1-1 2-3 1 2 3-3-2-2 2-2 1 1 1-2 12-15-2-1 2-2 2 1v1l11-15 2-1 3-5h1l8-14-2-2v-1l3 1 5-8h2l1-2 1-1 1-2-3-2 1-2 5 2 1-2 1-3 1-2h2l1-1-1-1 1-2h-1v-3h1v1l1 1 3-6-1-1-1 1-1-1 1-2 2 1v1l4-6h-2l1-2 2 1 2-3 1-3-4-1 2-3-1-1 1-1 2-4 2-5v-2l1-1h2l-2 2 1 2 5 2v-3l1-1-1-3 1-2 1-7m207 395l-19-2-16-4-26-8-11-2v-2l-3-2v10h6l9 1 18 5 22 8 18 1h6l14 3 30 4 24 6 25 5 22 5 66 12v-4h-6l-18-4-11-2-7-2-24-5-16-3-12-1-15-5-19-4-16-3-10-1h-6l-16-4-9-2zM1132-1h2m79 765h4-4z" class="st2"/></svg>